<svg version="1.1" xmlns="http://www.w3.org/2000/svg" viewBox="0 0 645.5 360" width="645.5" height="360">
  <!-- svg-source:excalidraw -->
  
  <defs>
    <style class="style-fonts">
      @font-face {
        font-family: "Virgil";
        src: url("https://excalidraw.com/Virgil.woff2");
      }
      @font-face {
        font-family: "Cascadia";
        src: url("https://excalidraw.com/Cascadia.woff2");
      }
    </style>
    
  </defs>
  <g stroke-linecap="round" transform="translate(475.5 78) rotate(0 54.5 80)"><path d="M48.13 1.67 C55.52 -0.93, 64.3 0.72, 71.67 4.12 C79.04 7.52, 86.65 13.97, 92.35 22.06 C98.04 30.15, 103.23 41.72, 105.84 52.68 C108.45 63.63, 108.73 76.49, 107.99 87.77 C107.25 99.06, 105.29 110.59, 101.42 120.37 C97.55 130.16, 91.26 139.91, 84.77 146.49 C78.27 153.07, 70.39 158.38, 62.44 159.86 C54.5 161.34, 44.7 159.19, 37.1 155.37 C29.5 151.55, 22.47 144.86, 16.84 136.94 C11.21 129.01, 5.95 118.43, 3.33 107.8 C0.71 97.18, 0.3 84.57, 1.1 73.2 C1.89 61.83, 4.33 49.67, 8.1 39.59 C11.87 29.51, 16.15 19.32, 23.7 12.72 C31.25 6.12, 47.8 1.79, 53.4 -0.01 C59.01 -1.8, 57.59 0.54, 57.34 1.96 M44.62 1.82 C51.74 -1.14, 60.73 1.1, 68.55 3.99 C76.37 6.87, 85.72 11.52, 91.54 19.13 C97.35 26.74, 100.46 39.04, 103.42 49.64 C106.38 60.24, 109.51 71.47, 109.3 82.74 C109.08 94.01, 105.75 107.03, 102.11 117.28 C98.48 127.52, 93.76 137.32, 87.51 144.22 C81.26 151.12, 72.36 156.37, 64.63 158.66 C56.9 160.96, 48.66 160.92, 41.11 158 C33.56 155.07, 25.34 148.87, 19.34 141.11 C13.33 133.35, 8.33 122.46, 5.07 111.45 C1.8 100.43, -0.5 86.53, -0.27 75.01 C-0.04 63.49, 2.58 52.54, 6.47 42.33 C10.36 32.12, 16.52 20.44, 23.09 13.76 C29.66 7.09, 42.18 3.92, 45.91 2.28 C49.65 0.63, 45.37 2.92, 45.49 3.9" stroke="#1e1e1e" stroke-width="2" fill="none"></path></g><g stroke-linecap="round" transform="translate(73.5 10) rotate(0 15 15)"><path d="M3.1 8 C3.1 8, 3.1 8, 3.1 8 M3.1 8 C3.1 8, 3.1 8, 3.1 8 M1.08 16.16 C2.99 11.57, 6.33 10.38, 13.6 1.71 M0.98 15.56 C5.42 11.47, 9.08 7.15, 13.03 2.54 M3.5 18.83 C8.74 16.87, 10.09 9.89, 18.11 4.17 M2.84 19.84 C7.97 14, 14.19 7.23, 17.79 2.6 M4.24 25.62 C12.11 18.37, 16.8 11.19, 25.08 4.47 M5.82 23.24 C10.61 18.74, 15.25 13.04, 23.49 3.18 M9.17 28.63 C12.87 21.11, 14.32 16.54, 26.72 4.5 M6.35 26.68 C14.21 18.84, 22.4 10.68, 25.45 6.52 M9.17 30.64 C16.32 26.58, 18.04 19.3, 30.15 7.61 M11.88 30.15 C15.99 24.24, 20.6 17.47, 28.21 8.7 M15.75 30.63 C22.25 26.04, 25.46 19.08, 27.39 14.29 M14.4 30.68 C20.8 24.55, 25.73 19.07, 28.26 15.17 M23.36 28.97 C23.89 27.19, 26.76 24.31, 30.66 18.96 M22.34 29.08 C24.13 26.42, 26.03 24.78, 29.83 19.65" stroke="#b2f2bb" stroke-width="0.5" fill="none"></path><path d="M11.06 1.31 C13.84 0.01, 17.44 -0.59, 20.35 0.65 C23.27 1.88, 27.03 5.68, 28.55 8.7 C30.07 11.72, 30.19 15.67, 29.47 18.76 C28.75 21.85, 26.7 25.31, 24.24 27.24 C21.78 29.17, 18.02 30.66, 14.69 30.36 C11.36 30.05, 6.55 27.48, 4.26 25.4 C1.96 23.31, 1.09 20.75, 0.92 17.83 C0.74 14.91, 1.28 10.79, 3.22 7.86 C5.16 4.94, 10.6 1.68, 12.54 0.31 C14.47 -1.07, 14.74 -0.57, 14.82 -0.4 M7.09 0.89 C9.42 -0.39, 14.01 0.12, 17.33 0.88 C20.66 1.65, 24.84 2.98, 27.06 5.48 C29.28 7.99, 30.98 12.42, 30.65 15.92 C30.32 19.43, 27.59 24.43, 25.07 26.51 C22.56 28.59, 18.67 28.35, 15.58 28.41 C12.48 28.47, 8.87 28.29, 6.51 26.87 C4.14 25.45, 2.25 22.71, 1.4 19.87 C0.54 17.02, 0.13 13.06, 1.39 9.81 C2.65 6.55, 7.59 1.66, 8.96 0.34 C10.34 -0.97, 9.86 1.5, 9.64 1.91" stroke="#1e1e1e" stroke-width="1" fill="none"></path></g><g stroke-linecap="round" transform="translate(77.5 76) rotate(0 13.5 14)"><path d="M1.8 1.56 C1.8 1.56, 1.8 1.56, 1.8 1.56 M1.8 1.56 C1.8 1.56, 1.8 1.56, 1.8 1.56 M2.85 6.45 C4.35 5.57, 4.59 4.22, 7.44 1.17 M2.85 6.45 C3.64 5.28, 4.78 4.11, 7.44 1.17 M3.24 12.09 C6.04 7.94, 9.31 4.32, 13.08 0.77 M3.24 12.09 C5.32 8.85, 8.84 6.37, 13.08 0.77 M0.36 21.51 C3.74 15.61, 7.26 13, 18.07 1.13 M0.36 21.51 C5.72 15.18, 9.79 10.89, 18.07 1.13 M2.06 25.64 C11 18.85, 15.67 8.07, 22.4 2.25 M2.06 25.64 C8.66 18.58, 13.26 11.75, 22.4 2.25 M4.43 29.02 C9.74 22.43, 13.86 18.64, 26.73 3.36 M4.43 29.02 C11.11 22.61, 17.12 14.9, 26.73 3.36 M8.76 30.14 C14.86 21.53, 23.63 15.12, 28.44 7.5 M8.76 30.14 C13.57 25.11, 16.84 20.92, 28.44 7.5 M14.4 29.74 C19.25 27.47, 21.67 21.3, 28.18 13.89 M14.4 29.74 C17.39 26.65, 21.01 22.55, 28.18 13.89 M20.7 28.59 C22.01 27.35, 23.68 24.66, 27.26 21.05 M20.7 28.59 C23.04 25.29, 26.12 23.17, 27.26 21.05" stroke="#b2f2bb" stroke-width="0.5" fill="none"></path><path d="M6.75 0 M6.75 0 C12.77 -0.87, 16.65 1.03, 20.25 0 M6.75 0 C9.62 0.24, 12.13 -0.39, 20.25 0 M20.25 0 C23.78 -0.68, 28.57 0.58, 27 6.75 M20.25 0 C26.76 0.51, 27.1 4.08, 27 6.75 M27 6.75 C25.74 11.99, 28.32 19.09, 27 21.25 M27 6.75 C27.03 10.35, 26.67 14.38, 27 21.25 M27 21.25 C25.35 26.73, 23.91 29.28, 20.25 28 M27 21.25 C26.71 27.85, 25.4 27.33, 20.25 28 M20.25 28 C15.79 27.34, 9.33 27.8, 6.75 28 M20.25 28 C16.03 28.06, 11.87 28.65, 6.75 28 M6.75 28 C1.21 28.25, 1.3 26.48, 0 21.25 M6.75 28 C2.38 29.86, -2.2 24.95, 0 21.25 M0 21.25 C-0.79 19.44, 0.09 13.82, 0 6.75 M0 21.25 C0.14 16.76, -0.37 13.29, 0 6.75 M0 6.75 C-1.32 1.74, 1.32 -1.72, 6.75 0 M0 6.75 C-1.57 2.56, 0.61 -2.21, 6.75 0" stroke="#1e1e1e" stroke-width="1" fill="none"></path></g><g stroke-linecap="round"><g transform="translate(89.5 40) rotate(0 -0.4475511660613165 19.467663054410366)"><path d="M-0.01 1.16 C0.27 7.33, 0.39 32.26, 0.58 38.21 M-1.48 0.73 C-1.29 7.01, -0.91 30.05, -0.58 36.2" stroke="#1e1e1e" stroke-width="1" fill="none"></path></g></g><mask></mask><g stroke-linecap="round" transform="translate(10 45) rotate(0 15 15)"><path d="M0.96 8.79 C0.96 8.79, 0.96 8.79, 0.96 8.79 M0.96 8.79 C0.96 8.79, 0.96 8.79, 0.96 8.79 M-1.35 14.74 C3.3 13.94, 6.77 9.83, 11.83 1.42 M0.11 15.42 C2.93 12.73, 6.69 8.45, 12.58 2.23 M2.22 20.28 C5.85 14.67, 10.44 12.31, 18.14 3.81 M2.2 20.58 C8.64 12.54, 14.24 5.9, 16.7 2.46 M4.29 24.3 C8.98 18.18, 11.04 12.93, 22.94 2.3 M4.3 23.59 C9.55 17.05, 16.96 9.31, 20.84 3.73 M7.12 26.44 C14.07 19.74, 19.51 12.89, 23.37 5.95 M6.76 27.75 C12.38 20.31, 16.96 14.51, 24.84 5.99 M11.97 26.99 C17.66 19.66, 22.1 14.5, 30.27 6.07 M10.79 29.17 C17.97 19.39, 23.97 12.76, 28.31 5.93 M15.47 31.94 C17.16 27.22, 23.57 21.56, 28.82 14.68 M12.86 30.52 C20.18 24.28, 24.57 16.62, 28.28 13.16 M16.65 34.22 C19.18 28.23, 24.87 25.66, 28.09 17.23 M16.71 32.06 C21.68 27.97, 23.79 25.07, 28.59 19.26" stroke="#ffc9c9" stroke-width="0.5" fill="none"></path><path d="M9.96 0.76 C12.76 -0.36, 16.05 0.33, 19.1 1.3 C22.16 2.26, 26.67 3.7, 28.29 6.54 C29.91 9.38, 29.33 15.17, 28.82 18.32 C28.3 21.48, 27.55 23.45, 25.2 25.47 C22.85 27.5, 17.85 30.25, 14.7 30.46 C11.56 30.67, 8.81 28.82, 6.31 26.73 C3.8 24.64, 0.54 20.96, -0.31 17.91 C-1.15 14.87, -0.74 11.51, 1.24 8.47 C3.22 5.43, 9.62 0.93, 11.59 -0.35 C13.56 -1.63, 13.14 0.41, 13.07 0.78 M18.45 -0.28 C21.63 0.41, 26.72 3.42, 28.39 6.23 C30.06 9.04, 28.92 13.24, 28.48 16.59 C28.04 19.95, 27.93 24.19, 25.74 26.37 C23.55 28.54, 18.68 29.75, 15.35 29.63 C12.01 29.5, 8.44 27.26, 5.75 25.6 C3.05 23.94, 0.02 22.38, -0.85 19.65 C-1.72 16.93, -0.95 12.49, 0.53 9.24 C2 5.99, 5.04 1.7, 8 0.14 C10.96 -1.42, 16.15 -0.32, 18.27 -0.12 C20.38 0.08, 20.42 0.92, 20.69 1.36" stroke="#1e1e1e" stroke-width="1" fill="none"></path></g><g stroke-linecap="round" transform="translate(14 111) rotate(0 13.5 14)"><path d="M1.8 1.56 C1.8 1.56, 1.8 1.56, 1.8 1.56 M1.8 1.56 C1.8 1.56, 1.8 1.56, 1.8 1.56 M2.85 6.45 C4.41 5.46, 4.37 4.39, 7.44 1.17 M2.85 6.45 C3.58 5.23, 5.03 3.83, 7.44 1.17 M3.24 12.09 C5.67 7.63, 8.02 6.1, 13.08 0.77 M3.24 12.09 C6.12 9.44, 8.11 6.33, 13.08 0.77 M0.36 21.51 C7.77 14, 12.68 7.78, 18.07 1.13 M0.36 21.51 C5.5 17.04, 9.38 12.26, 18.07 1.13 M2.06 25.64 C8.81 16.89, 14.39 11.75, 22.4 2.25 M2.06 25.64 C7.8 17.61, 15.03 10.14, 22.4 2.25 M4.43 29.02 C15.24 18.99, 21.48 8.08, 26.73 3.36 M4.43 29.02 C10.35 21.77, 15.56 16.22, 26.73 3.36 M8.76 30.14 C15.44 21.19, 22.24 15.57, 28.44 7.5 M8.76 30.14 C15.95 22.31, 24.05 13.05, 28.44 7.5 M14.4 29.74 C20.71 21.9, 25.37 17.98, 28.18 13.89 M14.4 29.74 C19.26 25.1, 24.07 20.25, 28.18 13.89 M20.7 28.59 C23.45 26.87, 24.78 23.79, 27.26 21.05 M20.7 28.59 C22.13 26.15, 24.77 24.44, 27.26 21.05" stroke="#ffc9c9" stroke-width="0.5" fill="none"></path><path d="M6.75 0 M6.75 0 C10.77 -1, 16.74 -0.47, 20.25 0 M6.75 0 C11.74 0.1, 15.88 0.63, 20.25 0 M20.25 0 C25.03 1.06, 25.03 3.56, 27 6.75 M20.25 0 C26.03 1.36, 27.19 2.98, 27 6.75 M27 6.75 C27.15 11.62, 26.02 15.06, 27 21.25 M27 6.75 C27.31 11.63, 27.64 14.99, 27 21.25 M27 21.25 C26.96 25.92, 24.73 28.57, 20.25 28 M27 21.25 C27.7 24.2, 25.69 30.09, 20.25 28 M20.25 28 C16.83 28.11, 15.2 27.38, 6.75 28 M20.25 28 C15.5 28.34, 10.23 27.42, 6.75 28 M6.75 28 C0.65 29.75, -1.74 23.98, 0 21.25 M6.75 28 C1.49 27.65, 1.48 27.63, 0 21.25 M0 21.25 C1.25 16.17, -0.01 11.63, 0 6.75 M0 21.25 C-0.76 15.85, 0.55 10.72, 0 6.75 M0 6.75 C-0.71 0.33, 0.98 -0.1, 6.75 0 M0 6.75 C-1.35 3.15, 0.15 -1.1, 6.75 0" stroke="#1e1e1e" stroke-width="1" fill="none"></path></g><g stroke-linecap="round"><g transform="translate(26 75) rotate(0 0.6331383019428358 18.587250375915318)"><path d="M-0.37 0.24 C-0.1 6.58, 0.47 30.53, 0.78 36.9 M1.63 -0.68 C1.8 5.87, -0.18 31.69, -0.28 37.85" stroke="#1e1e1e" stroke-width="1" fill="none"></path></g></g><mask></mask><g stroke-linecap="round" transform="translate(72 138) rotate(0 15 15)"><path d="M0 9.27 C0 9.27, 0 9.27, 0 9.27 M0 9.27 C0 9.27, 0 9.27, 0 9.27 M0.57 13.91 C2.59 12.31, 6.9 6.94, 11.58 4.61 M0.14 14.89 C4.44 10.31, 8.04 7.14, 9.73 4.32 M0.82 21.61 C6.37 13.58, 10.74 6.03, 19.12 0.83 M0.59 20.8 C5.03 14.71, 11.01 9.87, 18.53 -0.66 M2.12 24.83 C7.45 18.66, 12.24 16.2, 23.39 0.37 M4.32 22.65 C10.52 15.42, 17.66 8.35, 23.11 1.29 M5.01 25.39 C12.99 18.65, 19.26 12.38, 24.94 3.2 M6.44 25.2 C12.23 19.21, 17.55 12.35, 26.29 3.4 M8.9 28.37 C15.36 22.68, 21.24 16.86, 30.5 5.78 M9.1 29.41 C16.42 20.32, 25.19 11.74, 29.77 7.17 M13.13 28.58 C17.36 23.86, 25.98 17.03, 29.68 9.35 M14.17 29.95 C18.05 25.7, 21.43 22.27, 31.13 10.15 M18.29 28.57 C23 24.6, 24.61 23.46, 32.55 15.2 M19.44 30.47 C22.93 26.8, 25.13 22.78, 31.45 15.71" stroke="#a5d8ff" stroke-width="0.5" fill="none"></path><path d="M18.19 -0.68 C21.44 -0.62, 24.91 1.66, 26.81 4.25 C28.72 6.83, 29.54 11.55, 29.61 14.85 C29.68 18.14, 29.05 21.56, 27.24 24.02 C25.43 26.47, 21.98 28.78, 18.76 29.57 C15.54 30.37, 10.82 30.22, 7.94 28.78 C5.06 27.34, 2.83 24.16, 1.49 20.93 C0.15 17.69, -1.19 12.65, -0.09 9.38 C1.01 6.11, 4.94 2.79, 8.1 1.31 C11.25 -0.18, 16.58 0.21, 18.86 0.44 C21.14 0.67, 21.57 2.27, 21.77 2.68 M12.55 0.18 C15.53 -0.59, 20.66 1.16, 23.5 3 C26.35 4.84, 28.94 8.38, 29.64 11.2 C30.34 14.03, 28.65 17.09, 27.69 19.94 C26.73 22.8, 26.48 26.94, 23.86 28.34 C21.24 29.74, 15.51 28.96, 11.98 28.35 C8.44 27.74, 4.78 26.77, 2.63 24.66 C0.49 22.55, -0.79 19.03, -0.88 15.7 C-0.98 12.38, -0.38 7.46, 2.06 4.73 C4.51 2, 12.2 -0.22, 13.76 -0.68 C15.33 -1.14, 11.72 1.75, 11.47 1.98" stroke="#1e1e1e" stroke-width="1" fill="none"></path></g><g stroke-linecap="round" transform="translate(76 204) rotate(0 13.5 14)"><path d="M1.8 1.56 C1.8 1.56, 1.8 1.56, 1.8 1.56 M1.8 1.56 C1.8 1.56, 1.8 1.56, 1.8 1.56 M2.85 6.45 C4.49 5.25, 4.85 2.84, 7.44 1.17 M2.85 6.45 C4.56 4.39, 6.68 2.68, 7.44 1.17 M3.24 12.09 C8.15 8.12, 10.47 4.78, 13.08 0.77 M3.24 12.09 C6.11 7.77, 11.11 3.83, 13.08 0.77 M0.36 21.51 C5.14 15.06, 10.71 9.02, 18.07 1.13 M0.36 21.51 C4.05 17.44, 8.91 10.66, 18.07 1.13 M2.06 25.64 C7.41 19.15, 9.83 17.98, 22.4 2.25 M2.06 25.64 C5.69 21.06, 10.62 16.25, 22.4 2.25 M4.43 29.02 C13.93 18.18, 20.81 10.08, 26.73 3.36 M4.43 29.02 C12.52 20.76, 18.47 11.33, 26.73 3.36 M8.76 30.14 C18.15 22.82, 25.25 11.52, 28.44 7.5 M8.76 30.14 C15.92 21.99, 22.52 15.71, 28.44 7.5 M14.4 29.74 C18.27 27.86, 20.04 24.15, 28.18 13.89 M14.4 29.74 C17.63 25.67, 22.5 20.44, 28.18 13.89 M20.7 28.59 C23.19 25.96, 23.77 25.8, 27.26 21.05 M20.7 28.59 C22.31 26.59, 24.87 23.38, 27.26 21.05" stroke="#a5d8ff" stroke-width="0.5" fill="none"></path><path d="M6.75 0 M6.75 0 C12.73 1.02, 17.88 -1.11, 20.25 0 M6.75 0 C11.88 -0.46, 16.48 -0.19, 20.25 0 M20.25 0 C26.44 0.6, 28.87 0.72, 27 6.75 M20.25 0 C25.73 -1.26, 27.14 0.16, 27 6.75 M27 6.75 C26.45 11.94, 26.3 14.32, 27 21.25 M27 6.75 C26.66 10.71, 26.59 15.53, 27 21.25 M27 21.25 C25.13 25.26, 25.63 26.95, 20.25 28 M27 21.25 C26.42 23.78, 23.2 28.43, 20.25 28 M20.25 28 C18.16 27.68, 15.37 27.41, 6.75 28 M20.25 28 C15.32 27.63, 9.5 27.69, 6.75 28 M6.75 28 C3.4 28.38, 1.8 27, 0 21.25 M6.75 28 C2.63 26.81, 1.13 25.3, 0 21.25 M0 21.25 C1.26 17.59, -0.53 14.08, 0 6.75 M0 21.25 C0.33 17.8, 0.56 14.71, 0 6.75 M0 6.75 C1.18 3.57, 3.35 -1.06, 6.75 0 M0 6.75 C-0.72 1.67, 0.04 -1.11, 6.75 0" stroke="#1e1e1e" stroke-width="1" fill="none"></path></g><g stroke-linecap="round"><g transform="translate(88 168) rotate(0 0.7146843160502385 19.629629439162102)"><path d="M0.49 1.09 C0.42 7.67, 0.06 32.57, -0.03 38.64 M-0.72 0.62 C-0.45 6.91, 1.64 30.52, 2.14 36.86" stroke="#1e1e1e" stroke-width="1" fill="none"></path></g></g><mask></mask><g stroke-linecap="round" transform="translate(132 56) rotate(0 15 15)"><path d="M3.89 6.03 C3.89 6.03, 3.89 6.03, 3.89 6.03 M3.89 6.03 C3.89 6.03, 3.89 6.03, 3.89 6.03 M0.05 15.44 C4.05 11.71, 7.31 8.84, 13.66 -0.72 M-0.19 16.84 C4.01 12.08, 9.2 7.8, 12.83 2.01 M0.9 20.54 C6.15 12.46, 12.57 9.49, 18.6 0.92 M2.45 19.57 C7.26 12.93, 14.11 7.38, 18.01 1.08 M2.18 24.56 C7.33 20.74, 11.48 14.28, 24.38 2.08 M3.34 24.36 C10.4 17.03, 19.35 7.35, 22.59 3.35 M4.2 27.28 C11.77 19.34, 18.8 16.13, 24.59 6.42 M6.54 27.73 C12.04 22.39, 16.88 15.05, 26.08 6.44 M8.47 28.71 C13.92 21.69, 20.32 16.19, 27.37 10.36 M9 29.77 C15.08 24.32, 18.89 19.01, 28.55 9.16 M15.52 29.38 C19.28 24.99, 25.29 19.31, 30.06 12.42 M14.99 29.22 C18.3 26.9, 21.86 22.99, 30.91 10.78 M21.09 29.36 C26.08 24.11, 28.5 20.51, 32.95 17.63 M21.67 28.69 C25.8 23.59, 28.88 19.72, 31.6 16.62" stroke="#ffec99" stroke-width="0.5" fill="none"></path><path d="M20.45 1.1 C23.45 2.44, 27.26 6.33, 28.92 9.31 C30.58 12.29, 31.27 16.13, 30.42 18.99 C29.58 21.85, 26.57 24.76, 23.87 26.47 C21.16 28.18, 17.59 29.34, 14.19 29.25 C10.79 29.16, 5.81 28.16, 3.48 25.94 C1.15 23.71, 0.19 19.15, 0.2 15.89 C0.22 12.63, 1.61 9.09, 3.58 6.38 C5.55 3.68, 8.62 0.41, 12.04 -0.34 C15.47 -1.09, 22.06 1.33, 24.12 1.9 C26.19 2.47, 24.57 2.73, 24.43 3.08 M15.6 -0.26 C18.36 0.01, 21.81 2.85, 24.09 5.36 C26.36 7.87, 28.82 11.64, 29.23 14.8 C29.65 17.95, 28.09 21.91, 26.59 24.28 C25.09 26.65, 23.19 28.24, 20.26 29.01 C17.32 29.78, 11.94 29.9, 9 28.92 C6.05 27.94, 4.05 26.22, 2.59 23.14 C1.12 20.07, -0.52 14.01, 0.2 10.48 C0.92 6.95, 4.1 3.5, 6.93 1.95 C9.75 0.4, 15.72 1.36, 17.16 1.18 C18.59 0.99, 15.6 0.72, 15.55 0.82" stroke="#1e1e1e" stroke-width="1" fill="none"></path></g><g stroke-linecap="round" transform="translate(136 122) rotate(0 13.5 14)"><path d="M1.8 1.56 C1.8 1.56, 1.8 1.56, 1.8 1.56 M1.8 1.56 C1.8 1.56, 1.8 1.56, 1.8 1.56 M2.85 6.45 C4.06 4.95, 5.61 4, 7.44 1.17 M2.85 6.45 C4.47 4.23, 6.13 2.6, 7.44 1.17 M3.24 12.09 C6.06 8.01, 9.4 3.37, 13.08 0.77 M3.24 12.09 C6.6 8.17, 11.32 3.15, 13.08 0.77 M0.36 21.51 C7.59 15, 9.6 10.31, 18.07 1.13 M0.36 21.51 C4.1 16.93, 9.17 11.99, 18.07 1.13 M2.06 25.64 C5.82 20.82, 11.16 15.51, 22.4 2.25 M2.06 25.64 C8.88 17.77, 16.26 9.66, 22.4 2.25 M4.43 29.02 C9.57 24.99, 16.19 18.15, 26.73 3.36 M4.43 29.02 C11.29 20.62, 18.88 12.71, 26.73 3.36 M8.76 30.14 C13.49 23.03, 17.94 18.5, 28.44 7.5 M8.76 30.14 C16.23 21.67, 25.18 13.07, 28.44 7.5 M14.4 29.74 C16.15 25.59, 19.61 22.41, 28.18 13.89 M14.4 29.74 C18.51 26.34, 20.36 23.29, 28.18 13.89 M20.7 28.59 C21.34 26.24, 22.61 25.73, 27.26 21.05 M20.7 28.59 C22.57 26.37, 25.34 23.45, 27.26 21.05" stroke="#ffec99" stroke-width="0.5" fill="none"></path><path d="M6.75 0 M6.75 0 C9.71 -0.05, 15.03 -0.41, 20.25 0 M6.75 0 C12.29 -0.46, 17.03 0.56, 20.25 0 M20.25 0 C25.56 -0.04, 26.61 3.8, 27 6.75 M20.25 0 C25.04 -1.54, 25.9 0.04, 27 6.75 M27 6.75 C27.42 12.05, 26.56 14.96, 27 21.25 M27 6.75 C27.31 10.69, 27.47 15.29, 27 21.25 M27 21.25 C27.42 24.58, 26.62 28.96, 20.25 28 M27 21.25 C27.21 26.72, 25.84 26.47, 20.25 28 M20.25 28 C16.38 27.65, 12.97 29.11, 6.75 28 M20.25 28 C16.28 27.95, 13.72 27.82, 6.75 28 M6.75 28 C1.5 27.85, 0.77 26.89, 0 21.25 M6.75 28 C2.27 29.69, 0.64 26.6, 0 21.25 M0 21.25 C0.59 17.86, -0.8 14.44, 0 6.75 M0 21.25 C0.26 17.63, 0.09 15.7, 0 6.75 M0 6.75 C0.24 3.54, 1.71 -0.86, 6.75 0 M0 6.75 C0.76 2.01, 2.39 -0.94, 6.75 0" stroke="#1e1e1e" stroke-width="1" fill="none"></path></g><g stroke-linecap="round"><g transform="translate(148 86) rotate(0 0.13079573381412501 18.62877462245524)"><path d="M-0.77 -1.11 C-0.84 5.41, 0.2 31.66, 0.62 38.37 M1.03 0.92 C0.68 7.13, -0.59 30.36, -0.53 36.44" stroke="#1e1e1e" stroke-width="1" fill="none"></path></g></g><mask></mask><g stroke-linecap="round" transform="translate(137 179) rotate(0 15 15)"><path d="M15.42 -0.35 C18.33 -0.52, 22.07 1.67, 24.53 3.86 C26.99 6.04, 29.69 9.54, 30.17 12.76 C30.65 15.97, 29.24 20.56, 27.4 23.15 C25.56 25.74, 22.18 27.28, 19.16 28.31 C16.13 29.33, 12.27 30.26, 9.27 29.28 C6.26 28.3, 2.53 25.22, 1.13 22.42 C-0.27 19.62, 0.06 15.67, 0.88 12.47 C1.69 9.26, 3.18 5.16, 6.04 3.2 C8.91 1.25, 15.48 0.95, 18.06 0.74 C20.64 0.53, 21.56 1.62, 21.5 1.93 M19.22 1.17 C22.47 1.89, 27.02 4.08, 28.71 6.82 C30.41 9.56, 29.93 14.32, 29.39 17.62 C28.86 20.91, 27.5 24.68, 25.49 26.57 C23.49 28.46, 20.51 28.98, 17.39 28.97 C14.27 28.95, 9.79 28.02, 6.78 26.5 C3.77 24.99, 0.02 23.08, -0.68 19.88 C-1.39 16.68, 1.06 10.41, 2.56 7.31 C4.06 4.21, 5.42 2.26, 8.33 1.29 C11.25 0.31, 18.53 1.66, 20.05 1.46 C21.57 1.27, 17.96 0.25, 17.46 0.09" stroke="none" stroke-width="0" fill="#a5d8ff"></path><path d="M12.19 0.35 C14.88 -0.22, 19.29 -0.09, 22.25 1.68 C25.21 3.45, 28.88 7.8, 29.97 10.96 C31.07 14.11, 30.04 17.69, 28.81 20.6 C27.59 23.52, 25.61 27.04, 22.64 28.46 C19.67 29.89, 14.44 29.93, 11.02 29.15 C7.59 28.37, 3.97 26.42, 2.1 23.8 C0.23 21.17, -0.57 16.41, -0.21 13.4 C0.16 10.4, 1.57 7.94, 4.3 5.76 C7.03 3.58, 13.67 1.08, 16.19 0.3 C18.71 -0.48, 19.35 0.8, 19.43 1.08 M14.47 -0.85 C17.57 -1.27, 22.83 1.53, 25.38 3.7 C27.92 5.88, 29.12 9.35, 29.74 12.2 C30.36 15.04, 30.7 18.17, 29.1 20.75 C27.51 23.33, 23.41 26.34, 20.16 27.68 C16.92 29.02, 12.62 29.65, 9.62 28.81 C6.62 27.96, 3.53 25.34, 2.17 22.63 C0.81 19.92, 1.17 15.79, 1.44 12.55 C1.71 9.3, 1.87 5.22, 3.79 3.15 C5.71 1.07, 11.1 0.6, 12.95 0.1 C14.8 -0.41, 14.78 -0.11, 14.9 0.11" stroke="#1e1e1e" stroke-width="1" fill="none"></path></g><g stroke-linecap="round" transform="translate(141 245) rotate(0 13.5 14)"><path d="M6.78 1.59 L19.74 1.97 L23.89 -0.15 L27.47 5.02 L25.59 22.54 L26.13 26.28 L19.86 29.55 L7.01 26.66 L0.73 24.39 L-0.57 20.8 L-1.33 4.43 L3.57 1.13 L7.21 -0.45" stroke="none" stroke-width="0" fill="#a5d8ff"></path><path d="M6.75 0 M6.75 0 C10.68 0.82, 15.84 0.23, 20.25 0 M6.75 0 C10.07 0.22, 13.59 -0.51, 20.25 0 M20.25 0 C23.74 -1.47, 25.59 1.51, 27 6.75 M20.25 0 C24.31 -0.92, 29.05 1.19, 27 6.75 M27 6.75 C26.98 10.9, 26.7 13.09, 27 21.25 M27 6.75 C27.06 11.52, 27.26 15.5, 27 21.25 M27 21.25 C26.3 25.45, 25.38 28.78, 20.25 28 M27 21.25 C27.71 24.45, 26.14 25.87, 20.25 28 M20.25 28 C16.14 27.98, 15.19 28.19, 6.75 28 M20.25 28 C15.55 27.87, 10.45 27.67, 6.75 28 M6.75 28 C3.74 29.04, -0.04 25.45, 0 21.25 M6.75 28 C2.79 29.02, 2.2 26.41, 0 21.25 M0 21.25 C0.81 18.46, -1.07 13.97, 0 6.75 M0 21.25 C0.68 17.01, -0.04 14.02, 0 6.75 M0 6.75 C1.57 3.53, 0.47 -0.94, 6.75 0 M0 6.75 C-2.26 0.05, 3.99 0.47, 6.75 0" stroke="#1e1e1e" stroke-width="1" fill="none"></path></g><g stroke-linecap="round"><g transform="translate(153 209) rotate(0 0.21369412206115612 18.424979884568614)"><path d="M-0.85 -1.1 C-0.59 4.86, 1.11 30.31, 1.28 36.96 M0.9 0.93 C1.06 7.52, 0.2 31.97, 0.48 37.95" stroke="#1e1e1e" stroke-width="1" fill="none"></path></g></g><mask></mask><g stroke-linecap="round" transform="translate(14 181) rotate(0 15 15)"><path d="M10.18 1.48 C13.19 0.33, 17.98 -0.09, 20.85 1.06 C23.73 2.22, 26 5.73, 27.42 8.42 C28.85 11.11, 29.81 14.14, 29.43 17.19 C29.05 20.23, 27.65 24.51, 25.12 26.7 C22.6 28.89, 17.73 30.36, 14.26 30.33 C10.8 30.29, 6.57 28.63, 4.35 26.48 C2.12 24.33, 1.16 20.58, 0.91 17.44 C0.65 14.31, 1.14 10.66, 2.81 7.67 C4.49 4.68, 9.14 0.85, 10.97 -0.5 C12.8 -1.85, 13.62 -0.89, 13.81 -0.44 M16.8 1.31 C19.79 1.44, 24.15 3.69, 26.29 5.73 C28.44 7.77, 29.62 10.56, 29.66 13.56 C29.7 16.55, 28.54 21.03, 26.54 23.72 C24.54 26.42, 20.61 28.95, 17.66 29.72 C14.71 30.5, 11.73 29.96, 8.84 28.38 C5.95 26.79, 1.6 23.29, 0.33 20.21 C-0.94 17.13, 0.11 12.65, 1.2 9.9 C2.29 7.15, 4.48 5.54, 6.88 3.73 C9.29 1.91, 13.84 -0.58, 15.64 -0.99 C17.44 -1.39, 17.49 0.71, 17.69 1.29" stroke="none" stroke-width="0" fill="#ffec99"></path><path d="M11.64 0.68 C14.54 0.26, 20.14 1.19, 22.93 2.87 C25.72 4.55, 27.4 7.77, 28.4 10.76 C29.4 13.76, 29.83 18.11, 28.91 20.85 C28 23.59, 25.59 25.71, 22.9 27.18 C20.21 28.66, 16.11 30.06, 12.78 29.71 C9.45 29.36, 5.08 27.51, 2.91 25.09 C0.75 22.68, -0.31 18.54, -0.21 15.2 C-0.11 11.87, 1.46 7.47, 3.51 5.07 C5.57 2.67, 10.44 1.74, 12.11 0.79 C13.79 -0.16, 13.46 -0.61, 13.55 -0.63 M21.98 0.79 C24.89 2.07, 28.44 5.54, 29.7 8.72 C30.96 11.9, 30.37 16.98, 29.54 19.88 C28.71 22.77, 27.57 24.25, 24.72 26.07 C21.87 27.89, 15.69 31.04, 12.46 30.79 C9.23 30.55, 7.54 27.27, 5.34 24.61 C3.13 21.95, -0.37 17.74, -0.77 14.83 C-1.16 11.93, 1.09 9.68, 2.96 7.17 C4.82 4.65, 7.43 0.51, 10.44 -0.26 C13.46 -1.02, 19.08 2.32, 21.04 2.6 C23 2.87, 22.17 1.58, 22.19 1.4" stroke="#1e1e1e" stroke-width="1" fill="none"></path></g><g stroke-linecap="round" transform="translate(18 247) rotate(0 13.5 14)"><path d="M5.77 -1.7 L19.55 1.8 L23.45 0.22 L27.9 7.64 L28.74 19.87 L27.14 25.94 L21.72 28.77 L5.15 28.74 L1.55 25.09 L0.88 20.83 L0.79 3.83 L1.09 -0.23 L8.09 -0.49" stroke="none" stroke-width="0" fill="#ffec99"></path><path d="M6.75 0 M6.75 0 C10.69 0.63, 11.38 0.54, 20.25 0 M6.75 0 C10.22 0.37, 14.16 -0.59, 20.25 0 M20.25 0 C23.37 1.16, 28.45 1.11, 27 6.75 M20.25 0 C23.51 -1.95, 27.19 3.68, 27 6.75 M27 6.75 C28 11.03, 26.58 14.07, 27 21.25 M27 6.75 C26.46 9.37, 26.85 12.94, 27 21.25 M27 21.25 C28.3 26.77, 24.91 26.64, 20.25 28 M27 21.25 C28.66 25.06, 23.27 29.52, 20.25 28 M20.25 28 C14.99 28.23, 12.95 28.13, 6.75 28 M20.25 28 C14.65 28.53, 9.69 28.11, 6.75 28 M6.75 28 C2.94 28.36, 1.42 27.17, 0 21.25 M6.75 28 C2.93 29.92, 1.01 27.75, 0 21.25 M0 21.25 C0.1 16.04, 0.23 13.32, 0 6.75 M0 21.25 C0.43 16.52, 0.32 13.44, 0 6.75 M0 6.75 C-0.95 0.85, 4.07 1.24, 6.75 0 M0 6.75 C0.96 3.68, 0.6 -2.11, 6.75 0" stroke="#1e1e1e" stroke-width="1" fill="none"></path></g><g stroke-linecap="round"><g transform="translate(30 211) rotate(0 0.2118731167166743 18.827217033877957)"><path d="M-1.12 -0.88 C-0.79 5.36, 1.01 32.19, 1.54 38.54 M0.5 1.27 C0.75 7.67, 0.65 30.56, 0.88 36.69" stroke="#1e1e1e" stroke-width="1" fill="none"></path></g></g><mask></mask><g stroke-linecap="round" transform="translate(508 20.5) rotate(0 15 15)"><path d="M0.9 8.73 C0.9 8.73, 0.9 8.73, 0.9 8.73 M0.9 8.73 C0.9 8.73, 0.9 8.73, 0.9 8.73 M1.33 15.29 C3.68 11.19, 5.44 8.54, 10.91 4.06 M0.83 14.64 C2.79 12.88, 4.94 9.33, 9.96 3.56 M3.01 19.92 C6.6 16.9, 10.4 11.66, 15.85 2.86 M1.95 19.58 C5.11 15.81, 9.74 9.86, 17.07 3.54 M6.23 24.57 C12.95 16.76, 17.38 7.05, 22.86 2.96 M5.31 22.38 C8.34 17.25, 13.87 13.28, 21.27 2.36 M8.89 27.85 C13.11 20.5, 21.81 11.98, 23.28 5.35 M6.36 26.62 C11.64 20.05, 15.77 15.94, 25.72 5.51 M10.34 29.81 C15.4 24.24, 17.32 19.99, 28.2 6.88 M9.92 30.01 C16.02 22.17, 22.05 13.73, 27.56 7.29 M14.7 30.19 C17.58 27.36, 20.08 21.5, 31.81 11.8 M13.26 31.08 C19.12 25.8, 23.16 18.99, 29.86 11.91 M17.42 31.59 C21.82 25.55, 27.11 22.33, 30.39 16.43 M19.41 29.98 C23.52 25.27, 28.85 20.88, 30.47 16.63" stroke="#b2f2bb" stroke-width="0.5" fill="none"></path><path d="M7.97 1.26 C10.69 -0.32, 16.33 0.09, 19.36 0.89 C22.39 1.68, 24.29 3.61, 26.15 6.03 C28.01 8.44, 30.47 12.1, 30.51 15.36 C30.55 18.61, 28.59 23.13, 26.39 25.54 C24.18 27.94, 20.44 29.49, 17.27 29.78 C14.1 30.07, 10.13 29.13, 7.35 27.28 C4.58 25.43, 1.72 21.74, 0.63 18.67 C-0.46 15.6, -0.98 11.84, 0.81 8.84 C2.61 5.83, 9.39 2.01, 11.41 0.64 C13.42 -0.72, 12.87 0.31, 12.91 0.66 M10.04 1.8 C12.44 0.48, 15.33 0.94, 18.08 1.94 C20.84 2.94, 24.81 5.39, 26.57 7.8 C28.33 10.21, 28.91 13.53, 28.64 16.4 C28.36 19.27, 26.82 22.92, 24.92 25.04 C23.01 27.17, 20.5 28.76, 17.22 29.16 C13.94 29.56, 7.84 29.23, 5.23 27.46 C2.62 25.7, 2.4 21.55, 1.56 18.56 C0.72 15.57, -0.76 12.5, 0.2 9.52 C1.17 6.54, 6.04 1.81, 7.34 0.68 C8.65 -0.45, 7.87 2.32, 8.04 2.74" stroke="#1e1e1e" stroke-width="1" fill="none"></path></g><g stroke-linecap="round" transform="translate(424.5 96.5) rotate(0 15 15)"><path d="M1.21 9 C1.21 9, 1.21 9, 1.21 9 M1.21 9 C1.21 9, 1.21 9, 1.21 9 M1.37 15.64 C2.08 14.39, 6.48 11.19, 9.8 3.82 M0.42 15.14 C4.34 10.84, 8.62 7.38, 10.75 4.54 M1.72 19.73 C7.56 15.07, 15.99 6.41, 18.83 -0.8 M2.94 20.41 C8.98 14.33, 13.26 7.23, 20.67 0.73 M5.45 23.6 C10.7 13.94, 20.01 8.48, 22.21 0.71 M3.86 23.01 C10.03 17.68, 13.67 12.78, 23.64 2.31 M4.56 27.5 C12.87 18.24, 22.95 8.66, 26.93 4.7 M7 27.66 C10.7 22.67, 16.25 16.21, 25.95 6.07 M10.79 27.52 C16.93 23.57, 23.31 17.28, 29.98 8.52 M10.15 27.94 C16.21 21.73, 23.04 15.47, 28.6 7.74 M17.03 29.43 C21.12 24.57, 24.96 15.39, 31.59 13.08 M15.07 29.54 C21.41 22.8, 26.96 15.36, 30.85 11.44 M18.23 31.03 C23.66 27.38, 27.09 24.93, 29.72 17.05 M18.31 31.24 C22.21 27.13, 26.54 22.05, 31.45 17.36" stroke="#ffc9c9" stroke-width="0.5" fill="none"></path><path d="M18.97 -0.21 C22.24 0.35, 25.62 3.54, 27.56 6.2 C29.49 8.85, 30.76 12.57, 30.6 15.71 C30.44 18.86, 28.9 22.8, 26.6 25.08 C24.3 27.35, 20.18 28.96, 16.8 29.35 C13.42 29.74, 8.9 29.08, 6.33 27.41 C3.75 25.74, 2.25 22.35, 1.34 19.34 C0.44 16.33, -0.32 12.17, 0.92 9.34 C2.16 6.5, 5.54 3.53, 8.78 2.31 C12.02 1.08, 17.81 1.71, 20.34 1.99 C22.87 2.28, 23.86 3.99, 23.95 4.03 M20.65 1.87 C23.43 2.79, 26.55 5.96, 28.13 8.78 C29.72 11.59, 31.2 15.59, 30.14 18.76 C29.09 21.94, 24.49 26.02, 21.81 27.81 C19.13 29.59, 17.22 29.8, 14.04 29.48 C10.86 29.17, 5.29 28.35, 2.75 25.91 C0.2 23.47, -1.19 18.04, -1.25 14.87 C-1.3 11.7, 0.4 9.23, 2.44 6.88 C4.47 4.54, 7.6 1.48, 10.95 0.8 C14.3 0.12, 20.79 2.69, 22.55 2.8 C24.31 2.92, 21.9 1.39, 21.51 1.49" stroke="#1e1e1e" stroke-width="1" fill="none"></path></g><g stroke-linecap="round" transform="translate(533.5 159.5) rotate(0 13.5 14)"><path d="M1.8 1.56 C1.8 1.56, 1.8 1.56, 1.8 1.56 M1.8 1.56 C1.8 1.56, 1.8 1.56, 1.8 1.56 M2.85 6.45 C4.49 5.17, 4.92 4.04, 7.44 1.17 M2.85 6.45 C4.66 4.75, 6.39 2.84, 7.44 1.17 M3.24 12.09 C7.06 7.99, 8.23 5.72, 13.08 0.77 M3.24 12.09 C5.18 9.21, 8.92 5.94, 13.08 0.77 M0.36 21.51 C3.17 16.23, 9.49 11.51, 18.07 1.13 M0.36 21.51 C5.92 14.32, 11.29 8.17, 18.07 1.13 M2.06 25.64 C7.36 17.4, 15.18 10.14, 22.4 2.25 M2.06 25.64 C7.1 20.38, 12.95 13.23, 22.4 2.25 M4.43 29.02 C11.23 20.84, 16.42 16.51, 26.73 3.36 M4.43 29.02 C11.64 20.15, 20.66 10.18, 26.73 3.36 M8.76 30.14 C14.75 21.09, 25.13 11.83, 28.44 7.5 M8.76 30.14 C13.69 23.7, 19.74 18.71, 28.44 7.5 M14.4 29.74 C19.79 24.96, 22.16 19.76, 28.18 13.89 M14.4 29.74 C18.26 24.87, 21.41 21.41, 28.18 13.89 M20.7 28.59 C23.09 26.98, 26.01 22.66, 27.26 21.05 M20.7 28.59 C23.53 25.53, 25.52 23.14, 27.26 21.05" stroke="#ffc9c9" stroke-width="0.5" fill="none"></path><path d="M6.75 0 M6.75 0 C11.65 0.91, 14.41 -1.12, 20.25 0 M6.75 0 C10.13 -0.56, 14.63 -0.12, 20.25 0 M20.25 0 C23.23 1.82, 28.82 1.81, 27 6.75 M20.25 0 C26.81 2.04, 27.83 0.52, 27 6.75 M27 6.75 C28.23 9.85, 27.81 14.69, 27 21.25 M27 6.75 C27.56 10.44, 26.37 15.06, 27 21.25 M27 21.25 C26.39 26.65, 25.15 29.82, 20.25 28 M27 21.25 C26.76 25.05, 25.39 27.7, 20.25 28 M20.25 28 C17.93 28.75, 13.83 28.59, 6.75 28 M20.25 28 C15.23 27.73, 11.02 27.94, 6.75 28 M6.75 28 C3.1 28.93, -0.33 25.67, 0 21.25 M6.75 28 C3.87 26.28, 0.05 27.64, 0 21.25 M0 21.25 C-1.26 16.05, 0.81 13.17, 0 6.75 M0 21.25 C-0.18 15.9, 0.19 10.25, 0 6.75 M0 6.75 C-0.01 0.84, 3 -0.96, 6.75 0 M0 6.75 C-0.89 2.72, 3.02 -1.01, 6.75 0" stroke="#1e1e1e" stroke-width="1" fill="none"></path></g><g stroke-linecap="round" transform="translate(516.5 257.5) rotate(0 15 15)"><path d="M6.85 1.98 C6.85 1.98, 6.85 1.98, 6.85 1.98 M6.85 1.98 C6.85 1.98, 6.85 1.98, 6.85 1.98 M0.89 13.38 C7.45 7.93, 9.86 2.64, 12.58 -0.02 M1.96 14.19 C5.29 10.89, 7.7 6.87, 12.92 0.6 M1.52 18.6 C9.39 12.71, 12.84 6.71, 18.39 3.13 M3.36 20.13 C9.52 11.83, 14.64 5.72, 18.11 0.76 M2.92 22.38 C6.9 19.86, 13.15 13.67, 20.5 4.38 M4.36 23.97 C9.99 18.61, 14.94 10.65, 21.67 2.73 M7.65 26.37 C10.75 19.27, 18.66 16.76, 25.87 2.76 M6.67 27.73 C14.28 17.39, 22.52 8.53, 25.83 4.52 M10.7 30.18 C16.57 21.67, 21.09 12, 27.41 7.08 M9.32 29.4 C15.75 22.11, 20.71 17.18, 27.93 8.32 M15.59 30.97 C22.09 22.55, 25.65 15.84, 30.09 12.85 M14.85 29.33 C18.77 24.72, 24.19 18.68, 29.5 13.17 M17.65 30.41 C22.77 27.39, 28.42 19.95, 32.11 15.32 M19.38 30.72 C22.69 24.96, 27.53 21.34, 31.39 16.5" stroke="#a5d8ff" stroke-width="0.5" fill="none"></path><path d="M17 -0.14 C19.96 -0.13, 23.57 1.58, 25.65 3.86 C27.73 6.15, 29.1 10.28, 29.49 13.58 C29.88 16.87, 29.81 20.94, 27.98 23.63 C26.16 26.33, 21.7 28.8, 18.57 29.75 C15.43 30.69, 12.19 30.58, 9.18 29.29 C6.17 27.99, 1.9 24.84, 0.52 21.97 C-0.87 19.1, -0.15 15.35, 0.87 12.06 C1.9 8.77, 3.56 4.23, 6.66 2.21 C9.75 0.2, 17 0.25, 19.46 -0.04 C21.93 -0.33, 21.66 0.25, 21.46 0.49 M11.21 0.36 C14.22 -0.29, 20.78 -0.08, 23.57 1.64 C26.35 3.37, 27.23 7.75, 27.94 10.71 C28.65 13.67, 28.85 16.36, 27.82 19.41 C26.8 22.47, 24.5 27.25, 21.78 29.05 C19.07 30.85, 14.47 30.78, 11.52 30.22 C8.57 29.66, 6.05 28.33, 4.08 25.71 C2.11 23.08, -0.04 17.81, -0.31 14.47 C-0.57 11.14, 0.3 8.07, 2.49 5.71 C4.68 3.35, 11.14 1.37, 12.83 0.34 C14.52 -0.69, 12.73 -0.68, 12.63 -0.47" stroke="#1e1e1e" stroke-width="1" fill="none"></path></g><g stroke-linecap="round" transform="translate(496.5 124.5) rotate(0 13.5 14)"><path d="M1.8 1.56 C1.8 1.56, 1.8 1.56, 1.8 1.56 M1.8 1.56 C1.8 1.56, 1.8 1.56, 1.8 1.56 M2.85 6.45 C3.7 5.15, 6.06 3.65, 7.44 1.17 M2.85 6.45 C4.21 5.03, 5.55 3.01, 7.44 1.17 M3.24 12.09 C4.97 7.98, 8.35 7.39, 13.08 0.77 M3.24 12.09 C5.4 8.56, 8.39 6.35, 13.08 0.77 M0.36 21.51 C6.08 16.05, 8.3 10.09, 18.07 1.13 M0.36 21.51 C6.17 14.2, 11.54 8.16, 18.07 1.13 M2.06 25.64 C9.27 18.96, 15.4 13.72, 22.4 2.25 M2.06 25.64 C6.42 20.57, 11.05 14.72, 22.4 2.25 M4.43 29.02 C11.6 19.38, 18.7 13.63, 26.73 3.36 M4.43 29.02 C9.85 21.95, 14.81 17.19, 26.73 3.36 M8.76 30.14 C13.13 23.54, 17.93 19.35, 28.44 7.5 M8.76 30.14 C16.5 22.45, 23.15 13.31, 28.44 7.5 M14.4 29.74 C19.83 25.8, 21.07 20.27, 28.18 13.89 M14.4 29.74 C20.02 24.56, 24.78 19.86, 28.18 13.89 M20.7 28.59 C22.88 27.78, 23.13 25.18, 27.26 21.05 M20.7 28.59 C22.64 26.28, 25.65 23.14, 27.26 21.05" stroke="#a5d8ff" stroke-width="0.5" fill="none"></path><path d="M6.75 0 M6.75 0 C10.7 -0.71, 11.51 0.85, 20.25 0 M6.75 0 C11.4 -0.27, 15.42 0.48, 20.25 0 M20.25 0 C25.47 -1.51, 26.7 1.59, 27 6.75 M20.25 0 C23.98 2.02, 25.36 3.61, 27 6.75 M27 6.75 C28.32 12.12, 26.74 13.76, 27 21.25 M27 6.75 C27.1 13.2, 26.88 18.1, 27 21.25 M27 21.25 C27.56 25.49, 24.11 28.69, 20.25 28 M27 21.25 C28.56 27.97, 25.87 29.4, 20.25 28 M20.25 28 C14.55 26.79, 10.86 27.17, 6.75 28 M20.25 28 C15.99 28.04, 12.42 27.56, 6.75 28 M6.75 28 C2.29 29.64, 0.15 25.77, 0 21.25 M6.75 28 C4.24 26, -1.17 27.04, 0 21.25 M0 21.25 C-0.58 15.6, 0.26 11.16, 0 6.75 M0 21.25 C0.27 16.4, -0.28 12.38, 0 6.75 M0 6.75 C0.67 1.37, 2.13 1.45, 6.75 0 M0 6.75 C0.02 4.13, 3.84 -2.18, 6.75 0" stroke="#1e1e1e" stroke-width="1" fill="none"></path></g><g stroke-linecap="round" transform="translate(592.5 97.5) rotate(0 15 15)"><path d="M2.57 6.21 C2.57 6.21, 2.57 6.21, 2.57 6.21 M2.57 6.21 C2.57 6.21, 2.57 6.21, 2.57 6.21 M1.11 12.56 C3.67 10.8, 8.06 7.25, 13.14 2.14 M1.43 13.15 C6.35 9.55, 9.66 4.06, 11.87 1.64 M3.62 19.43 C9.85 10.41, 14.22 8.72, 18.78 3.41 M3.33 17.07 C6.26 13.89, 11.28 8.76, 16.23 1.4 M3.75 22.94 C10.4 13.84, 17.77 10.83, 21.68 3.8 M4.92 21.3 C11.3 15.01, 17.55 7.09, 21.9 1.63 M6.49 24.35 C12.41 20.56, 15.19 17.14, 26.31 5.18 M6.46 26.11 C12.17 21.26, 16.75 15.42, 24.86 5.65 M10 26.4 C15.96 22.67, 21.93 15.52, 27.43 9.42 M10.53 27.64 C15.15 22.21, 17.62 19.21, 28.09 8.83 M14.65 29.91 C18.81 24.48, 21.59 20.17, 29.57 9.86 M14.07 30.23 C19.33 24.35, 25.26 16.54, 30.66 10.47 M20.57 27.96 C24.36 24.94, 26.54 19.58, 31.14 16.06 M20 28.89 C21.81 26.06, 25.05 22.73, 30.78 17.63" stroke="#ffec99" stroke-width="0.5" fill="none"></path><path d="M11.68 0.57 C14.6 -0.37, 18.01 0.15, 20.9 1.6 C23.8 3.04, 27.78 6.26, 29.07 9.22 C30.36 12.19, 29.48 16.23, 28.65 19.38 C27.81 22.54, 26.51 26.48, 24.08 28.16 C21.65 29.84, 17.19 29.95, 14.09 29.46 C10.98 28.98, 7.64 27.57, 5.46 25.26 C3.29 22.94, 1.5 18.79, 1.05 15.58 C0.59 12.38, 0.81 8.51, 2.73 6.03 C4.65 3.55, 10.63 1.8, 12.57 0.71 C14.51 -0.38, 14.26 -0.78, 14.37 -0.51 M11.82 -0.63 C14.9 -1.17, 19.63 1.47, 22.41 3.41 C25.18 5.34, 27.31 7.9, 28.48 10.98 C29.65 14.06, 30.59 19.06, 29.44 21.87 C28.29 24.68, 24.71 26.48, 21.59 27.83 C18.46 29.19, 13.69 30.62, 10.68 30.02 C7.66 29.42, 5.23 27, 3.48 24.22 C1.72 21.43, 0.15 16.57, 0.16 13.32 C0.17 10.07, 1.4 7.05, 3.53 4.73 C5.65 2.41, 11.13 -0.06, 12.93 -0.62 C14.72 -1.19, 14.18 0.77, 14.27 1.32" stroke="#1e1e1e" stroke-width="1" fill="none"></path></g><g stroke-linecap="round" transform="translate(519.5 196.5) rotate(0 13.5 14)"><path d="M1.8 1.56 C1.8 1.56, 1.8 1.56, 1.8 1.56 M1.8 1.56 C1.8 1.56, 1.8 1.56, 1.8 1.56 M2.85 6.45 C5.33 4.06, 7.15 1.68, 7.44 1.17 M2.85 6.45 C4.5 4.64, 5.44 3.22, 7.44 1.17 M3.24 12.09 C7.7 6.74, 9.78 3.14, 13.08 0.77 M3.24 12.09 C7.24 8.43, 10.42 3.46, 13.08 0.77 M0.36 21.51 C4.54 16.96, 7.15 11.49, 18.07 1.13 M0.36 21.51 C6.33 16.23, 10.88 10.39, 18.07 1.13 M2.06 25.64 C10.94 15.28, 19.36 5.61, 22.4 2.25 M2.06 25.64 C8.13 17.64, 15.16 9.64, 22.4 2.25 M4.43 29.02 C13.62 21.22, 17.38 12.26, 26.73 3.36 M4.43 29.02 C12.26 19.07, 20.87 9.31, 26.73 3.36 M8.76 30.14 C16.26 23.82, 22.87 15.35, 28.44 7.5 M8.76 30.14 C15.44 24.52, 20.34 16.79, 28.44 7.5 M14.4 29.74 C16.02 27.39, 21.88 23.25, 28.18 13.89 M14.4 29.74 C20.82 24.33, 26.07 17.03, 28.18 13.89 M20.7 28.59 C22.14 25.62, 25.15 24.79, 27.26 21.05 M20.7 28.59 C22.68 26.96, 24.11 24.15, 27.26 21.05" stroke="#ffec99" stroke-width="0.5" fill="none"></path><path d="M6.75 0 M6.75 0 C12.91 1.33, 16.32 1.31, 20.25 0 M6.75 0 C11.9 -0.12, 17.02 0.7, 20.25 0 M20.25 0 C23.32 1.18, 26.55 1.49, 27 6.75 M20.25 0 C22.85 2.19, 29.15 1.93, 27 6.75 M27 6.75 C27.8 10.36, 28.47 13.24, 27 21.25 M27 6.75 C26.81 10.91, 27.53 15.26, 27 21.25 M27 21.25 C27.97 26.97, 25.48 28.53, 20.25 28 M27 21.25 C27.1 23.79, 22.68 27.48, 20.25 28 M20.25 28 C17.66 27.84, 13.76 29.01, 6.75 28 M20.25 28 C17.26 28.12, 14.75 27.52, 6.75 28 M6.75 28 C1.23 29.12, 1.16 27.39, 0 21.25 M6.75 28 C1.53 27.27, -0.72 26.36, 0 21.25 M0 21.25 C-1.04 17.15, -0.71 11.4, 0 6.75 M0 21.25 C-0.09 17.13, -0.04 12.55, 0 6.75 M0 6.75 C1.38 0.35, 2.51 -0.34, 6.75 0 M0 6.75 C1.97 4.16, 0.44 0.23, 6.75 0" stroke="#1e1e1e" stroke-width="1" fill="none"></path></g><g stroke-linecap="round" transform="translate(595.5 193.5) rotate(0 15 15)"><path d="M15.97 -0.92 C18.99 -0.77, 23.29 1.7, 25.51 4.19 C27.73 6.67, 28.79 10.78, 29.3 13.99 C29.81 17.19, 30.34 20.88, 28.58 23.41 C26.82 25.95, 21.85 28.35, 18.74 29.17 C15.63 29.99, 12.82 29.68, 9.92 28.34 C7.02 27, 2.97 23.99, 1.32 21.12 C-0.32 18.25, -0.66 14.1, 0.04 11.13 C0.75 8.16, 2.52 5.11, 5.54 3.29 C8.56 1.46, 15.79 0.47, 18.15 0.16 C20.51 -0.15, 19.74 1.16, 19.71 1.41 M15.45 1.26 C18.62 0.82, 21.95 0.42, 24.21 2.22 C26.48 4.01, 28.23 9.05, 29.03 12.04 C29.82 15.02, 30.06 17.31, 28.97 20.12 C27.89 22.93, 25.28 27.14, 22.5 28.9 C19.72 30.67, 15.83 31.45, 12.3 30.72 C8.77 29.98, 3.09 27.19, 1.3 24.51 C-0.5 21.83, 0.76 18.12, 1.53 14.64 C2.3 11.17, 3.86 5.97, 5.91 3.67 C7.96 1.38, 12.51 1.52, 13.85 0.85 C15.18 0.19, 14.1 -0.59, 13.94 -0.31" stroke="none" stroke-width="0" fill="#a5d8ff"></path><path d="M16.01 0.76 C19.04 1, 24 3.61, 26.37 5.78 C28.74 7.95, 29.97 10.82, 30.23 13.79 C30.48 16.77, 29.73 21.13, 27.9 23.63 C26.08 26.12, 22.56 28.06, 19.28 28.76 C16.01 29.46, 11.31 29.08, 8.24 27.84 C5.16 26.61, 2.17 24.38, 0.82 21.36 C-0.52 18.35, -0.87 12.78, 0.16 9.74 C1.18 6.69, 3.96 4.76, 6.98 3.07 C9.99 1.39, 15.99 0.09, 18.24 -0.37 C20.5 -0.83, 20.59 0.03, 20.5 0.32 M20.69 1.99 C23.71 2.68, 26.32 4.32, 27.66 6.98 C29 9.64, 29.17 14.68, 28.74 17.95 C28.3 21.22, 27.33 24.74, 25.07 26.58 C22.81 28.42, 18.54 29.04, 15.18 29.01 C11.83 28.98, 7.47 28.42, 4.95 26.4 C2.43 24.39, 0.38 19.89, 0.08 16.89 C-0.22 13.9, 1.49 10.91, 3.15 8.43 C4.8 5.94, 6.98 3.39, 10.03 1.99 C13.08 0.59, 19.9 0.05, 21.44 0.01 C22.98 -0.02, 19.73 1.24, 19.26 1.78" stroke="#1e1e1e" stroke-width="1" fill="none"></path></g><g stroke-linecap="round" transform="translate(514.5 87.5) rotate(0 13.5 14)"><path d="M6.78 -0.6 L20.76 1.07 L26.71 -0.08 L28.29 7.46 L28.92 21.74 L24.33 28.24 L19.34 29.95 L5 28.21 L0.7 25.62 L1.13 20.21 L-1.21 3.98 L3.06 1.17 L5.19 1.07" stroke="none" stroke-width="0" fill="#a5d8ff"></path><path d="M6.75 0 M6.75 0 C10.6 -0.69, 13 0.6, 20.25 0 M6.75 0 C11.31 0.22, 17 0.1, 20.25 0 M20.25 0 C24.94 -1.32, 26.42 2.1, 27 6.75 M20.25 0 C24.52 -1.15, 28.77 3.62, 27 6.75 M27 6.75 C26.25 10.58, 27.69 14.85, 27 21.25 M27 6.75 C26.94 12.45, 26.18 17.49, 27 21.25 M27 21.25 C25.12 26.32, 25.08 26.83, 20.25 28 M27 21.25 C28.9 28.04, 25.33 26.49, 20.25 28 M20.25 28 C16 26.99, 12.15 27.26, 6.75 28 M20.25 28 C16.74 28.51, 13.66 28.57, 6.75 28 M6.75 28 C2.22 27.73, -0.55 25.21, 0 21.25 M6.75 28 C4.52 29.88, 0.59 24.74, 0 21.25 M0 21.25 C-1.48 18.78, 0.12 14.98, 0 6.75 M0 21.25 C0.82 16.24, 0.76 9.78, 0 6.75 M0 6.75 C-0.17 3.34, 2.18 -0.86, 6.75 0 M0 6.75 C-1.78 3.78, 3.62 -0.6, 6.75 0" stroke="#1e1e1e" stroke-width="1" fill="none"></path></g><g stroke-linecap="round" transform="translate(432.5 193.5) rotate(0 15 15)"><path d="M17.22 0.3 C20.27 0.19, 22.65 2.03, 24.89 4.17 C27.14 6.31, 30.35 10.03, 30.71 13.14 C31.06 16.25, 29.03 20.2, 27.02 22.84 C25 25.48, 21.74 27.96, 18.62 28.96 C15.5 29.97, 11.06 30.16, 8.31 28.89 C5.55 27.62, 3.3 24.22, 2.1 21.36 C0.9 18.5, 0.28 14.83, 1.11 11.73 C1.93 8.62, 4.28 4.7, 7.04 2.74 C9.8 0.79, 15.67 0.13, 17.67 -0.01 C19.66 -0.15, 18.88 1.58, 18.99 1.92 M12.24 -1.11 C15.5 -2.04, 20.32 -0.07, 23.33 1.88 C26.34 3.82, 29.52 7.42, 30.3 10.55 C31.09 13.67, 29.02 17.58, 28.06 20.63 C27.09 23.69, 26.8 27.42, 24.52 28.87 C22.24 30.32, 17.83 29.84, 14.38 29.35 C10.93 28.87, 6.23 28.35, 3.83 25.96 C1.42 23.58, 0.28 18.21, -0.04 15.03 C-0.35 11.84, -0.18 9.39, 1.93 6.88 C4.04 4.37, 11.21 1.07, 12.63 -0.03 C14.05 -1.13, 10.47 -0.23, 10.44 0.28" stroke="none" stroke-width="0" fill="#ffec99"></path><path d="M22.89 1.24 C25.81 2.42, 28.74 5.42, 29.83 8.38 C30.92 11.35, 30.6 15.71, 29.41 19.02 C28.23 22.32, 25.53 26.54, 22.72 28.21 C19.9 29.89, 15.64 29.46, 12.53 29.06 C9.41 28.66, 6.16 28.19, 4.03 25.82 C1.91 23.46, -0.18 18.34, -0.24 14.88 C-0.31 11.41, 1.72 7.53, 3.63 5.03 C5.55 2.54, 7.62 0.24, 11.25 -0.1 C14.87 -0.44, 22.75 1.89, 25.38 2.99 C28.02 4.1, 27.2 6.3, 27.04 6.55 M12.97 0.31 C16.15 -0.6, 20.18 -0.49, 22.8 1.11 C25.43 2.71, 27.71 6.86, 28.72 9.93 C29.73 13.01, 29.75 16.38, 28.88 19.55 C28.01 22.73, 26.24 27.1, 23.5 28.98 C20.75 30.85, 15.54 31.7, 12.41 30.81 C9.28 29.92, 6.93 26.19, 4.74 23.62 C2.55 21.06, -0.38 18.33, -0.74 15.43 C-1.09 12.52, 0.64 8.62, 2.62 6.2 C4.6 3.78, 9.46 1.7, 11.15 0.88 C12.84 0.07, 12.74 1.14, 12.78 1.32" stroke="#1e1e1e" stroke-width="1" fill="none"></path></g><g stroke-linecap="round" transform="translate(498.5 158.5) rotate(0 13.5 14)"><path d="M8.04 0.71 L22.17 0.49 L24.33 3.62 L26.09 8.7 L25.25 21.46 L24.33 25.62 L21.38 26.96 L5.12 28.18 L3.06 25.8 L-1.56 22.32 L-1.26 2.79 L0.78 3.07 L5.64 0.61" stroke="none" stroke-width="0" fill="#ffec99"></path><path d="M6.75 0 M6.75 0 C10.9 -0.91, 16.26 0.39, 20.25 0 M6.75 0 C10.71 0.04, 14.99 -0.25, 20.25 0 M20.25 0 C26.29 1.2, 27.26 3.68, 27 6.75 M20.25 0 C26.81 -1.35, 25.87 3.19, 27 6.75 M27 6.75 C27.76 10.28, 27.89 12.15, 27 21.25 M27 6.75 C26.98 10.96, 27.46 16.74, 27 21.25 M27 21.25 C27.5 24.44, 24.41 29.55, 20.25 28 M27 21.25 C25.92 25.02, 23.14 27.22, 20.25 28 M20.25 28 C17.77 27.97, 14.34 28.75, 6.75 28 M20.25 28 C15.05 27.8, 10.89 28.53, 6.75 28 M6.75 28 C2.76 27.12, -0.71 26.62, 0 21.25 M6.75 28 C3.02 25.75, 2.17 26.04, 0 21.25 M0 21.25 C0.98 16.89, 1.06 11.02, 0 6.75 M0 21.25 C-0.01 17.09, -0.55 14.04, 0 6.75 M0 6.75 C1.19 1.73, 0.43 -0.49, 6.75 0 M0 6.75 C0.55 4.17, 1.1 -1.51, 6.75 0" stroke="#1e1e1e" stroke-width="1" fill="none"></path></g><g stroke-linecap="round"><g transform="translate(202.5 158) rotate(0 97.60253963060677 -0.20831832483958124)"><path d="M-1.9 1.61 C31.14 1.72, 163.72 -1.99, 197.1 -2.03 M2.27 0.02 C35.04 0.76, 162.4 1.52, 194.92 1.04" stroke="#1e1e1e" stroke-width="4" fill="none"></path></g><g transform="translate(202.5 158) rotate(0 97.60253963060677 -0.20831832483958124)"><path d="M169.06 11.52 C172.8 11.1, 184.97 6.08, 197.29 2.29 M166.11 11.5 C173.71 7.48, 178.28 9.06, 196.76 0.1" stroke="#1e1e1e" stroke-width="4" fill="none"></path></g><g transform="translate(202.5 158) rotate(0 97.60253963060677 -0.20831832483958124)"><path d="M169 -9 C172.37 -4.09, 184.55 -3.77, 197.29 2.29 M166.06 -9.02 C173.64 -8.73, 178.22 -2.83, 196.76 0.1" stroke="#1e1e1e" stroke-width="4" fill="none"></path></g></g><mask></mask><g stroke-linecap="round"><g transform="translate(524.5 52) rotate(0 0.28529794476924053 12.381998748127359)"><path d="M-0.88 -0.59 C-0.75 3.51, 1.03 19.94, 1.45 24.22 M0.86 1.72 C0.81 5.98, 0.68 21.22, 0.74 25.35" stroke="#1e1e1e" stroke-width="2" fill="none"></path></g></g><mask></mask><g stroke-linecap="round"><g transform="translate(592.5 122) rotate(0 -6.4152666669525615 2.194331839196394)"><path d="M0.95 0.59 C-1.38 0.97, -10.72 2.77, -13.23 3 M-0.02 -0.15 C-2.49 0.38, -11.29 4.05, -13.78 4.54" stroke="#1e1e1e" stroke-width="2" fill="none"></path></g></g><mask></mask><g stroke-linecap="round"><g transform="translate(595.5 205) rotate(0 -10.198260516319465 -3.705636950954812)"><path d="M1.2 0.38 C-2.15 -0.83, -17.06 -6.66, -20.77 -7.79 M0.37 -0.47 C-3.06 -1.49, -17.9 -5.33, -21.59 -6.66" stroke="#1e1e1e" stroke-width="2" fill="none"></path></g></g><mask></mask><g stroke-linecap="round"><g transform="translate(530.5 257) rotate(0 -0.9580912261631056 -9.179206632282558)"><path d="M0.11 -0.63 C-0.05 -4.16, -1.23 -16.62, -1.39 -20.01 M-1.3 1.65 C-1.51 -1.16, -2.07 -14.84, -2.02 -18.48" stroke="#1e1e1e" stroke-width="2" fill="none"></path></g></g><mask></mask><g stroke-linecap="round"><g transform="translate(462.5 200) rotate(0 8.68799462579193 -4.45138136899098)"><path d="M-0.63 -0.07 C2.22 -1.3, 14.89 -5.64, 18.01 -7.16 M1.24 -1.15 C3.86 -2.73, 14.38 -7.61, 17.06 -8.84" stroke="#1e1e1e" stroke-width="2" fill="none"></path></g></g><mask></mask><g stroke-linecap="round"><g transform="translate(454.5 114) rotate(0 13.457811308409987 4.58966826001182)"><path d="M1.1 0.69 C5.72 2.1, 22.71 8.08, 26.7 9.17 M0.22 0.01 C4.83 1.05, 21.58 6.31, 26.12 7.67" stroke="#1e1e1e" stroke-width="2" fill="none"></path></g></g><mask></mask><g transform="translate(50.5 305) rotate(0 44.69166564941406 22.5)"><text x="0" y="0" font-family="Virgil, Segoe UI Emoji" font-size="36px" fill="#1e1e1e" text-anchor="start" style="white-space: pre;" direction="ltr" dominant-baseline="text-before-edge">1-to-1</text></g><g transform="translate(477.80833435058594 303.5) rotate(0 60.32500076293945 22.5)"><text x="0" y="0" font-family="Virgil, Segoe UI Emoji" font-size="36px" fill="#1e1e1e" text-anchor="start" style="white-space: pre;" direction="ltr" dominant-baseline="text-before-edge">N-to-M</text></g><g stroke-linecap="round" transform="translate(605.5 149) rotate(0 15 15)"><path d="M7.62 1.12 C10.43 -0.37, 16.29 -1.04, 19.51 -0.02 C22.74 0.99, 25.13 4.66, 26.98 7.23 C28.82 9.79, 30.67 12.45, 30.6 15.36 C30.53 18.26, 28.78 22.09, 26.54 24.67 C24.3 27.25, 20.38 30.39, 17.18 30.84 C13.97 31.3, 10.14 29.53, 7.29 27.4 C4.45 25.27, 0.96 21.2, 0.12 18.06 C-0.72 14.91, 0.48 11.33, 2.26 8.55 C4.03 5.77, 8.89 2.77, 10.77 1.36 C12.65 -0.05, 13.44 -0.16, 13.52 0.07 M23.08 0.92 C25.89 2.1, 26.96 6.65, 27.95 9.92 C28.94 13.19, 30.04 17.71, 29 20.54 C27.97 23.37, 24.28 25.51, 21.75 26.91 C19.21 28.31, 16.9 29.21, 13.78 28.95 C10.66 28.68, 5.55 27.56, 3.01 25.31 C0.48 23.06, -1.66 18.89, -1.42 15.46 C-1.17 12.02, 2.27 7.15, 4.47 4.71 C6.67 2.27, 9.02 1.11, 11.8 0.83 C14.57 0.55, 19.5 3, 21.13 3.03 C22.76 3.06, 21.68 1.19, 21.58 0.99" stroke="#1e1e1e" stroke-width="1" fill="none"></path></g><g stroke-linecap="round"><g transform="translate(605.5 164) rotate(0 -10.620961556034104 -0.1380252931267023)"><path d="M0.4 0.71 C-2.92 0.64, -17.09 -0.7, -20.8 -0.98 M-0.85 0.03 C-4.23 0.22, -18.55 0.52, -21.64 0.56" stroke="#1e1e1e" stroke-width="2" fill="none"></path></g></g><mask></mask></svg>